# xmcd
#
# Track frame offsets:
#	150
#	11151
#	18816
#	41473
#	58879
#	70827
#	78123
#	87866
#	97730
#	107660
#	122813
#	138633
#	147712
#	161593
#	170354
#	191510
#	214318
#	229047
#	249268
#	267328
#
# Disc length: 3816 seconds
#
# Revision: 3
# Processed by: cddbd v1.5.2PL0 Copyright (c) Steve Scherf et al.
# Submitted via: audiograbber 1.83.01
#
DISCID=100ee614
DTITLE=Boris Blank - Electrified [CD 2)
DYEAR=2014
DGENRE=Electronic
TTITLE0=A Touch Of Magic
TTITLE1=The Bridge
TTITLE2=The Last Mile
TTITLE3=Dome
TTITLE4=The Astrologer
TTITLE5=Licht Haus
TTITLE6=Ancore
TTITLE7=One Minute To Go
TTITLE8=They're Still Here
TTITLE9=Heaven's Below
TTITLE10=Pacific Light
TTITLE11=Intervals
TTITLE12=Open The Box
TTITLE13=Ask The Stones
TTITLE14=Aqua Marine
TTITLE15=Traum Blau
TTITLE16=Delta Boots
TTITLE17=Sphere
TTITLE18=Young Dr. Kirk
TTITLE19=Granada Kiss
EXTD=
EXTT0=
EXTT1=
EXTT2=
EXTT3=
EXTT4=
EXTT5=
EXTT6=
EXTT7=
EXTT8=
EXTT9=
EXTT10=
EXTT11=
EXTT12=
EXTT13=
EXTT14=
EXTT15=
EXTT16=
EXTT17=
EXTT18=
EXTT19=
PLAYORDER=
